<?xml version="1.0" encoding="UTF-8" standalone="no"?>
<svg
   xmlns:dc="http://purl.org/dc/elements/1.1/"
   xmlns:cc="http://creativecommons.org/ns#"
   xmlns:rdf="http://www.w3.org/1999/02/22-rdf-syntax-ns#"
   xmlns:svg="http://www.w3.org/2000/svg"
   xmlns="http://www.w3.org/2000/svg"
   id="svg11"
   xml:space="preserve"
   enable-background="new 0 0 200 200"
   viewBox="0 0 200 200"
   y="0px"
   x="0px"
   version="1.1"><metadata
     id="metadata15"><rdf:RDF><cc:Work
         rdf:about=""><dc:format>image/svg+xml</dc:format><dc:type
           rdf:resource="http://purl.org/dc/dcmitype/StillImage" /></cc:Work></rdf:RDF></metadata><defs
     id="defs258063" /><linearGradient
     spreadMethod="pad"
     y2="30%"
     x2="-10%"
     y1="120%"
     x1="30%"
     id="3d_gradient2-logo-b120c2ff-f85b-4d9d-9f4e-98a7c25a2244"><stop
       id="stop258040"
       stop-opacity="1"
       stop-color="#ffffff"
       offset="0%" /><stop
       id="stop258042"
       stop-opacity="1"
       stop-color="#000000"
       offset="100%" /></linearGradient><linearGradient
     gradientTransform="rotate(-30)"
     spreadMethod="pad"
     y2="30%"
     x2="-10%"
     y1="120%"
     x1="30%"
     id="3d_gradient3-logo-b120c2ff-f85b-4d9d-9f4e-98a7c25a2244"><stop
       id="stop258045"
       stop-opacity="1"
       stop-color="#ffffff"
       offset="0%" /><stop
       id="stop258047"
       stop-opacity="1"
       stop-color="#cccccc"
       offset="50%" /><stop
       id="stop258049"
       stop-opacity="1"
       stop-color="#000000"
       offset="100%" /></linearGradient><path
     style="fill:#061826;stroke-width:0.75947022"
     d="m 99.813505,40.011001 c -0.998627,0.0033 -2.129098,0.02069 -2.512479,0.03843 -0.382993,0.01773 -1.010095,0.05405 -1.393476,0.08023 -0.382993,0.0266 -1.095764,0.0853 -1.583496,0.130477 -0.487716,0.04518 -1.276061,0.130902 -1.752401,0.19002 -0.475892,0.05954 -1.235962,0.165108 -1.689062,0.2352 -0.452667,0.0701 -1.24143,0.202687 -1.752402,0.29516 -0.510941,0.09206 -1.404032,0.271936 -1.984647,0.399884 -0.580615,0.127523 -1.464031,0.33697 -1.963535,0.464918 -0.499116,0.127948 -1.335224,0.356389 -1.857968,0.507561 -0.522341,0.150747 -1.387172,0.418043 -1.921308,0.593708 -0.534165,0.175666 -1.313276,0.442536 -1.731288,0.59244 -0.418043,0.15033 -1.21614,0.453936 -1.773515,0.675625 -0.55739,0.221264 -1.507472,0.620305 -2.111327,0.886758 -0.60384,0.266452 -1.610913,0.738121 -2.238007,1.048448 -0.627064,0.30994 -1.46312,0.738122 -1.857968,0.951389 -0.394818,0.213244 -1.09789,0.606794 -1.562382,0.874909 -0.464492,0.267714 -1.091587,0.638464 -1.393476,0.824253 -0.30192,0.185372 -0.891011,0.558659 -1.309023,0.829342 -0.418043,0.270675 -1.111409,0.73601 -1.541269,1.034095 -0.429443,0.298122 -1.180217,0.839898 -1.667949,1.203912 -0.487716,0.363991 -1.219101,0.928148 -1.625722,1.253278 -0.406218,0.324719 -1.014272,0.824708 -1.351249,1.110117 -0.336544,0.285455 -0.963616,0.835266 -1.393476,1.221608 -0.429443,0.386373 -1.291707,1.206419 -1.915384,1.822045 -0.62411,0.61524 -1.443753,1.451348 -1.821666,1.857968 -0.377927,0.406218 -0.920098,1.005007 -1.205127,1.330137 -0.284604,0.325144 -0.76304,0.885466 -1.063258,1.245683 -0.299809,0.359768 -0.827215,1.015563 -1.171331,1.456815 -0.344147,0.441268 -0.895188,1.172623 -1.225026,1.625722 -0.329367,0.452668 -0.898605,1.269759 -1.265125,1.815742 -0.366528,0.545991 -0.855923,1.29634 -1.08779,1.667948 -0.23182,0.371594 -0.584412,0.950933 -0.784153,1.28791 -0.199307,0.336544 -0.574706,0.992324 -0.833974,1.456816 -0.259268,0.464492 -0.798051,1.499878 -1.197533,2.301347 -0.39904,0.801013 -0.893061,1.834348 -1.097054,2.295423 -0.204374,0.461112 -0.528675,1.221228 -0.721231,1.689061 -0.192131,0.467872 -0.478429,1.192445 -0.635084,1.610533 -0.157082,0.418043 -0.404532,1.102143 -0.550214,1.520156 -0.145681,0.418043 -0.389327,1.159103 -0.541768,1.646835 -0.152441,0.487717 -0.371168,1.219102 -0.486031,1.625722 -0.114854,0.406218 -0.314162,1.156977 -0.442953,1.667949 -0.128791,0.510941 -0.320079,1.318288 -0.424377,1.794628 -0.104298,0.475891 -0.24745,1.16966 -0.317542,1.541269 -0.0701,0.371593 -0.17524,0.960654 -0.233514,1.309023 -0.05785,0.348369 -0.143996,0.889719 -0.190863,1.203456 -0.04729,0.31332 -0.1233,0.864353 -0.168906,1.22457 -0.04561,0.359769 -0.121189,1.03455 -0.168063,1.499042 -0.04687,0.464492 -0.114012,1.233836 -0.149061,1.710176 -0.03547,0.475891 -0.08319,1.292998 -0.10641,1.815741 -0.02322,0.522341 -0.04223,1.66286 -0.04265,2.53405 -4.23e-4,0.87157 0.019,2.03067 0.04307,2.57582 0.02365,0.54556 0.0815,1.48598 0.127948,2.08976 0.04687,0.60384 0.132588,1.52524 0.191288,2.04798 0.05827,0.52234 0.162147,1.33941 0.230977,1.81575 0.06841,0.47589 0.191706,1.25494 0.27363,1.73128 0.0815,0.4759 0.215781,1.19799 0.297697,1.60461 0.08192,0.40622 0.224644,1.07131 0.317125,1.47793 0.0929,0.40622 0.263915,1.10928 0.380464,1.56238 0.116123,0.45267 0.325987,1.22245 0.46576,1.71018 0.139348,0.48772 0.425645,1.40912 0.63551,2.04799 0.210289,0.63846 0.530368,1.56321 0.711942,2.05429 0.181574,0.49151 0.490671,1.28958 0.687025,1.77351 0.196353,0.48434 0.504182,1.21272 0.68407,1.61942 0.179888,0.40622 0.496587,1.10002 0.703915,1.54127 0.207753,0.44127 0.559076,1.15363 0.781191,1.58349 0.222114,0.42945 0.574706,1.09281 0.782862,1.4733 0.208596,0.38089 0.579346,1.03622 0.824253,1.45682 0.244914,0.42058 0.616933,1.04047 0.826759,1.37699 0.209864,0.33655 0.592858,0.93529 0.85129,1.33014 0.258851,0.39482 0.724186,1.0789 1.034095,1.52015 0.310365,0.44127 0.816658,1.13799 1.125307,1.54841 0.308679,0.41003 0.824253,1.07511 1.146041,1.47793 0.321764,0.40242 0.818785,1.00713 1.104193,1.34411 0.285455,0.33655 0.833975,0.96362 1.218646,1.39348 0.385105,0.42944 1.356718,1.43737 2.159858,2.23968 0.80276,0.8023 1.744807,1.71526 2.093176,2.02816 0.348369,0.31332 0.966122,0.85425 1.372363,1.20217 0.406643,0.34795 1.061967,0.89101 1.456815,1.20641 0.394819,0.31585 1.031589,0.8112 1.41459,1.10086 0.383418,0.28967 1.01974,0.75585 1.414589,1.03538 0.394818,0.27954 1.164572,0.80314 1.710175,1.1629 0.545991,0.35978 1.29634,0.84028 1.667949,1.06835 0.371593,0.22802 1.046398,0.62622 1.499042,0.88547 0.452667,0.25926 1.08984,0.61481 1.41588,0.79007 0.32557,0.17524 1.066676,0.55613 1.646836,0.84621 0.579772,0.29009 1.387172,0.67942 1.793337,0.8648 0.406643,0.1858 1.061967,0.47548 1.456816,0.64438 0.394818,0.16891 1.117332,0.46407 1.605899,0.65663 0.48856,0.19213 1.31958,0.50292 1.846576,0.68998 0.526989,0.18749 1.409957,0.48265 1.962244,0.6562 0.551899,0.17355 1.33644,0.4096 1.74268,0.52445 0.406643,0.11444 1.156977,0.31375 1.667949,0.44254 0.510941,0.12879 1.318744,0.32008 1.794628,0.42438 0.476317,0.10429 1.16966,0.24744 1.541269,0.31754 0.371593,0.0705 1.01769,0.18453 1.435702,0.2542 0.418043,0.0693 1.102144,0.17355 1.520156,0.2314 0.418043,0.0579 1.092802,0.144 1.499042,0.19129 0.406644,0.0469 1.185685,0.1233 1.731289,0.16891 0.545991,0.0456 1.372363,0.10767 1.836855,0.13723 0.520229,0.0333 1.768426,0.0541 3.251444,0.0545 1.485981,4.2e-4 2.729911,-0.0203 3.251441,-0.0536 0.46449,-0.0295 1.19632,-0.0819 1.62572,-0.11612 0.42987,-0.0346 1.05696,-0.0916 1.39348,-0.12711 0.33697,-0.0355 0.9163,-0.10219 1.28791,-0.14864 0.37159,-0.046 1.11224,-0.15117 1.64554,-0.23308 0.53375,-0.0819 1.32209,-0.21452 1.7524,-0.29432 0.4303,-0.0798 1.14346,-0.22212 1.58479,-0.3167 0.44127,-0.0946 1.15364,-0.25674 1.5835,-0.36019 0.42986,-0.10346 1.13252,-0.28377 1.56238,-0.40073 0.42987,-0.11698 1.16123,-0.32684 1.62572,-0.4666 0.46449,-0.13978 1.24356,-0.38765 1.73129,-0.55106 0.48772,-0.16342 1.2955,-0.4493 1.79463,-0.63594 0.49911,-0.18622 1.20262,-0.45773 1.56238,-0.60341 0.36019,-0.14526 0.93027,-0.38258 1.2668,-0.52699 0.33696,-0.14484 0.98305,-0.43282 1.4357,-0.64057 0.45309,-0.20777 1.37449,-0.65874 2.04799,-1.00251 0.67351,-0.3433 1.55729,-0.80989 1.96353,-1.03705 0.40664,-0.22718 1.16419,-0.66803 1.68397,-0.9801 0.51981,-0.31163 1.32763,-0.81499 1.79463,-1.11771 0.46745,-0.30319 1.19161,-0.79008 1.6097,-1.0827 0.41804,-0.29221 1.08946,-0.77572 1.49228,-1.07427 0.40285,-0.29854 1.00159,-0.75417 1.33014,-1.01298 0.32895,-0.25844 0.92093,-0.73855 1.31578,-1.06668 0.39482,-0.3281 0.99362,-0.84028 1.33014,-1.13799 0.33697,-0.2977 0.9864,-0.89139 1.44375,-1.31958 0.45731,-0.42776 1.20809,-1.16252 1.66795,-1.63248 0.46027,-0.46998 1.13123,-1.17726 1.49099,-1.57165 0.36019,-0.39439 0.93195,-1.03964 1.27059,-1.43357 0.33908,-0.39398 0.92815,-1.10632 1.30948,-1.58221 0.38131,-0.47632 0.94121,-1.19837 1.24485,-1.60461 0.30319,-0.40664 0.73263,-0.99566 0.95389,-1.30902 0.22128,-0.31375 0.64903,-0.94083 0.95056,-1.39348 0.30149,-0.45266 0.76683,-1.1752 1.03455,-1.60461 0.26771,-0.42986 0.7056,-1.16123 0.97288,-1.62572 0.26772,-0.46449 0.66127,-1.16753 0.87491,-1.56238 0.21367,-0.39482 0.65114,-1.24994 0.97205,-1.90019 0.32133,-0.65029 0.73769,-1.52821 0.92564,-1.95048 0.18791,-0.42269 0.49109,-1.12576 0.67393,-1.56238 0.18284,-0.43704 0.50419,-1.25031 0.71448,-1.80769 0.21028,-0.55739 0.49869,-1.35421 0.64057,-1.77055 0.1423,-0.41635 0.37075,-1.11946 0.50799,-1.56238 0.13681,-0.44296 0.32514,-1.07131 0.41846,-1.39644 0.0933,-0.32515 0.26518,-0.96195 0.38215,-1.41459 0.11697,-0.45309 0.29728,-1.19419 0.40031,-1.64684 0.10303,-0.45309 0.26434,-1.21317 0.35808,-1.68906 0.0937,-0.47632 0.23731,-1.26467 0.31839,-1.7524 0.0815,-0.48772 0.19593,-1.23854 0.2542,-1.66795 0.0587,-0.42987 0.13512,-1.02825 0.16933,-1.33013 0.0346,-0.30192 0.0916,-0.85297 0.12668,-1.22457 0.0351,-0.3716 0.0925,-1.08438 0.12752,-1.5835 0.0355,-0.49954 0.0862,-1.61767 0.1136,-2.48506 0.038,-1.21356 0.0376,-1.949183 -0.002,-3.188107 -0.0274,-0.885922 -0.0777,-2.000672 -0.11148,-2.476556 -0.0333,-0.476317 -0.0811,-1.084372 -0.10557,-1.35125 -0.0245,-0.267295 -0.0832,-0.837316 -0.13005,-1.266796 -0.0469,-0.429868 -0.1326,-1.123257 -0.19045,-1.541269 -0.0579,-0.418043 -0.17144,-1.159104 -0.25251,-1.646835 -0.0815,-0.487717 -0.22422,-1.276518 -0.31797,-1.752402 -0.0937,-0.476317 -0.23647,-1.160395 -0.31754,-1.520156 -0.0811,-0.360194 -0.25252,-1.072524 -0.38173,-1.583495 -0.12879,-0.510941 -0.35639,-1.356718 -0.50587,-1.879081 -0.14906,-0.522767 -0.47716,-1.567851 -0.72884,-2.32246 -0.25166,-0.755013 -0.62368,-1.809438 -0.82721,-2.343574 -0.20353,-0.534166 -0.54599,-1.389223 -0.76137,-1.900194 -0.21536,-0.510941 -0.54683,-1.27105 -0.73685,-1.689062 -0.1896,-0.418043 -0.59667,-1.263835 -0.90491,-1.879081 -0.30783,-0.61524 -0.74108,-1.451728 -0.96316,-1.857968 -0.22169,-0.406644 -0.57893,-1.042981 -0.79388,-1.41459 -0.21493,-0.371593 -0.57175,-0.970375 -0.79258,-1.330136 -0.22085,-0.360194 -0.67689,-1.072524 -1.01298,-1.583495 -0.3357,-0.510942 -0.8399,-1.251987 -1.1203,-1.646836 -0.27995,-0.394818 -0.73727,-1.021867 -1.01594,-1.393476 -0.27828,-0.371593 -0.72461,-0.951388 -0.99187,-1.287909 -0.26729,-0.33697 -0.76554,-0.945009 -1.10715,-1.35125 -0.34204,-0.406643 -0.81583,-0.957692 -1.05354,-1.22457 -0.23731,-0.267295 -0.76896,-0.846657 -1.18105,-1.287909 -0.41255,-0.441268 -1.14642,-1.192065 -1.63165,-1.667949 -0.48476,-0.476317 -1.21401,-1.168445 -1.62025,-1.538763 -0.40622,-0.369907 -1.05187,-0.941211 -1.43525,-1.269758 -0.38299,-0.328524 -1.04465,-0.877036 -1.4695,-1.219101 -0.42522,-0.34161 -1.17558,-0.92177 -1.66795,-1.288746 -0.49236,-0.367371 -1.18318,-0.869441 -1.5358,-1.116497 -0.35217,-0.2466 -1.0265,-0.702646 -1.49904,-1.012981 -0.47209,-0.310365 -1.1528,-0.744873 -1.51302,-0.966122 -0.35976,-0.220847 -0.96824,-0.582727 -1.35125,-0.803596 -0.38299,-0.220846 -1.00075,-0.567947 -1.37236,-0.771925 -0.37159,-0.203956 -1.293,-0.676893 -2.04799,-1.051411 -0.75458,-0.374548 -1.7524,-0.849164 -2.21689,-1.054828 -0.46449,-0.205642 -1.37662,-0.587374 -2.02687,-0.848328 -0.65029,-0.260962 -1.55266,-0.608063 -2.00576,-0.771091 -0.45267,-0.162997 -1.24143,-0.433247 -1.75241,-0.60046 -0.51094,-0.16722 -1.34699,-0.424376 -1.85796,-0.571326 -0.51095,-0.147368 -1.27105,-0.355546 -1.68907,-0.463224 -0.41804,-0.107252 -1.12113,-0.27827 -1.56238,-0.379614 -0.44127,-0.101343 -1.19161,-0.261379 -1.66795,-0.355546 -0.47589,-0.09417 -1.14095,-0.219152 -1.47793,-0.277426 -0.33654,-0.05869 -0.92564,-0.153284 -1.30902,-0.210708 -0.38299,-0.05743 -0.99103,-0.142302 -1.35125,-0.188751 -0.35977,-0.04645 -1.02483,-0.122457 -1.47793,-0.168906 -0.45266,-0.04687 -1.22244,-0.113587 -1.71017,-0.149061 -0.48772,-0.03547 -1.31411,-0.08361 -1.83686,-0.107253 -0.52234,-0.02322 -1.76721,-0.03969 -2.765834,-0.03632 z m 0.907875,10.455627 c 0.45309,0.0063 1.23216,0.03083 1.73128,0.05447 0.49955,0.02407 1.24994,0.07178 1.66795,0.105991 0.41805,0.03462 1.16883,0.110632 1.66795,0.168906 0.49954,0.05869 1.22161,0.154127 1.60461,0.212401 0.38342,0.05828 1.10799,0.180732 1.61008,0.272362 0.50249,0.09163 1.30059,0.252516 1.77351,0.358082 0.47336,0.105141 1.18485,0.275741 1.58221,0.379196 0.39693,0.10303 1.02399,0.274473 1.39347,0.381307 0.36906,0.10641 1.10845,0.337388 1.64258,0.512628 0.53417,0.175665 1.37024,0.467871 1.85797,0.64902 0.48772,0.181574 1.22883,0.472094 1.64684,0.645223 0.41804,0.173554 1.08308,0.461538 1.47793,0.640575 0.39482,0.179038 1.25965,0.598349 1.92214,0.932326 0.66211,0.334015 1.63119,0.851746 2.15355,1.150218 0.52193,0.298965 1.263,0.73939 1.646,0.978805 0.383,0.239848 0.95306,0.606794 1.2668,0.815823 0.31375,0.209021 0.82638,0.561188 1.14012,0.782482 0.31374,0.221264 0.91212,0.660003 1.33013,0.975008 0.41805,0.315013 1.0641,0.821747 1.43571,1.126219 0.37159,0.304031 0.94166,0.785823 1.26679,1.070853 0.32515,0.285029 0.92815,0.831012 1.33986,1.213557 0.41171,0.382993 1.08483,1.040854 1.49525,1.46274 0.41044,0.42184 1.0126,1.061132 1.33818,1.421348 0.32515,0.359769 0.80101,0.901568 1.05696,1.203457 0.25588,0.30192 0.71489,0.862682 1.02057,1.245683 0.3053,0.382993 0.7453,0.953059 0.97797,1.266796 0.23225,0.313745 0.62876,0.864354 0.88167,1.22457 0.25252,0.359769 0.67985,0.996577 0.9501,1.41459 0.27067,0.418042 0.66887,1.054372 0.88546,1.414589 0.21705,0.359769 0.60089,1.024829 0.85297,1.477929 0.25251,0.452667 0.65578,1.212722 0.89564,1.689062 0.24027,0.475891 0.56457,1.140952 0.72039,1.477929 0.15624,0.336544 0.45013,1.001589 0.65366,1.477929 0.20354,0.475892 0.49405,1.189103 0.64565,1.584787 0.15159,0.395243 0.39017,1.04298 0.53036,1.4395 0.13977,0.396504 0.37792,1.118168 0.52825,1.603773 0.15033,0.48518 0.37244,1.243177 0.49279,1.683594 0.12077,0.440842 0.3112,1.191229 0.42353,1.667948 0.11233,0.476735 0.27194,1.203912 0.3547,1.616001 0.0823,0.412134 0.21704,1.153179 0.29854,1.646835 0.0819,0.493625 0.20396,1.334769 0.27195,1.86898 0.0676,0.534166 0.15243,1.303555 0.18875,1.710176 0.0363,0.406217 0.0861,1.005007 0.11106,1.330136 0.0249,0.325144 0.0557,1.487194 0.0688,2.582123 0.0156,1.280315 0.006,2.335525 -0.0254,2.955855 -0.0274,0.53079 -0.0866,1.40191 -0.13175,1.93612 -0.0452,0.53417 -0.13047,1.36052 -0.18959,1.83686 -0.0587,0.47589 -0.15455,1.16966 -0.2124,1.54126 -0.0579,0.3716 -0.17229,1.03668 -0.25421,1.47793 -0.0823,0.44127 -0.22549,1.14437 -0.31796,1.56239 -0.0929,0.41804 -0.25547,1.10214 -0.36188,1.52015 -0.10599,0.41804 -0.27574,1.04853 -0.37709,1.40062 -0.10092,0.35217 -0.29009,0.97926 -0.42058,1.39347 -0.13047,0.41425 -0.3661,1.11392 -0.52361,1.55525 -0.15792,0.44126 -0.42944,1.16335 -0.60341,1.6046 -0.1744,0.44127 -0.48223,1.18235 -0.68407,1.64684 -0.20226,0.46449 -0.64986,1.41459 -0.99529,2.11133 -0.34541,0.69673 -0.80276,1.58015 -1.01594,1.96353 -0.21324,0.38299 -0.62706,1.09576 -0.91972,1.5835 -0.2922,0.48771 -0.8285,1.33309 -1.19161,1.87908 -0.36315,0.54556 -0.90073,1.32125 -1.19373,1.72369 -0.29348,0.40242 -0.73643,0.99149 -0.98473,1.30902 -0.24787,0.31755 -0.71996,0.90074 -1.04936,1.29551 -0.32937,0.39482 -0.8437,0.99361 -1.14262,1.33013 -0.29939,0.33655 -1.02947,1.10382 -1.62193,1.70509 -0.59244,0.60089 -1.39135,1.37996 -1.77518,1.73129 -0.38427,0.3509 -0.96825,0.87111 -1.29802,1.15493 -0.32979,0.28418 -0.88971,0.74867 -1.24439,1.03204 -0.35428,0.28292 -0.97668,0.76388 -1.38337,1.06789 -0.40622,0.30403 -1.024,0.75163 -1.37237,0.994 -0.34836,0.2428 -0.97546,0.66168 -1.39347,0.93065 -0.41804,0.26941 -1.11688,0.70266 -1.55266,0.96278 -0.43578,0.26012 -1.15789,0.6731 -1.60461,0.91714 -0.44676,0.24406 -1.23004,0.65029 -1.74101,0.90278 -0.51094,0.25252 -1.2993,0.62454 -1.7524,0.82722 -0.45267,0.20226 -1.21272,0.52529 -1.68906,0.71785 -0.4759,0.19254 -1.20771,0.47293 -1.62573,0.62326 -0.41804,0.15033 -1.1114,0.38848 -1.54126,0.5291 -0.42987,0.14104 -1.15151,0.36314 -1.60461,0.49363 -0.45267,0.1309 -1.27105,0.34879 -1.81825,0.48475 -0.54725,0.13598 -1.42135,0.33402 -1.94242,0.44001 -0.52107,0.10598 -1.34153,0.25884 -1.8225,0.3395 -0.48139,0.0806 -1.33644,0.20395 -1.9002,0.27405 -0.56415,0.0701 -1.33856,0.15582 -1.72202,0.19044 -0.38299,0.0346 -1.01974,0.087 -1.41459,0.11612 -0.45394,0.0342 -1.5797,0.0541 -3.06142,0.0545 -1.513401,4.2e-4 -2.620177,-0.019 -3.124769,-0.0549 -0.429442,-0.0304 -1.085207,-0.0832 -1.456816,-0.11739 -0.371593,-0.0338 -0.998627,-0.10008 -1.393476,-0.14695 -0.394818,-0.0469 -0.974172,-0.12288 -1.287909,-0.16848 -0.31332,-0.0456 -0.845367,-0.13048 -1.182344,-0.18876 -0.336544,-0.0579 -0.95435,-0.17312 -1.372362,-0.25588 -0.418043,-0.0832 -1.1528,-0.24323 -1.632482,-0.35598 -0.480114,-0.11274 -1.192444,-0.29263 -1.583495,-0.39988 -0.391021,-0.10726 -1.119459,-0.31923 -1.618963,-0.47125 -0.499116,-0.15244 -1.335225,-0.4286 -1.857968,-0.61397 -0.522341,-0.18538 -1.357173,-0.4987 -1.854171,-0.69674 -0.49743,-0.19805 -1.247809,-0.51137 -1.667948,-0.69674 -0.420154,-0.18538 -1.314947,-0.60933 -1.988445,-0.94204 -0.673514,-0.33275 -1.595343,-0.81241 -2.047988,-1.06622 -0.452667,-0.25379 -1.070473,-0.60975 -1.372362,-0.7913 -0.30192,-0.182 -0.729677,-0.44423 -0.950098,-0.58357 -0.220421,-0.13935 -0.741501,-0.48012 -1.157432,-0.75754 -0.415932,-0.27743 -0.957692,-0.64818 -1.203457,-0.82471 -0.245757,-0.17609 -0.713203,-0.51939 -1.038348,-0.76342 -0.325144,-0.24365 -0.8762,-0.6714 -1.224569,-0.95056 -0.348369,-0.27912 -0.899441,-0.73643 -1.22457,-1.01594 -0.325145,-0.27996 -0.875366,-0.76555 -1.222444,-1.07928 -0.347526,-0.31375 -1.032879,-0.96954 -1.523117,-1.45727 -0.490671,-0.48772 -1.145205,-1.16252 -1.45431,-1.49905 -0.309522,-0.33697 -0.833139,-0.92602 -1.164192,-1.30902 -0.330635,-0.38342 -0.883795,-1.05103 -1.228823,-1.48385 -0.345414,-0.43325 -0.884251,-1.13632 -1.197153,-1.56238 -0.313319,-0.42649 -0.87453,-1.23133 -1.246974,-1.78871 -0.372862,-0.55739 -0.945464,-1.46016 -1.272264,-2.00576 -0.326831,-0.54599 -0.766002,-1.30606 -0.975464,-1.68906 -0.209447,-0.38342 -0.602153,-1.13883 -0.872403,-1.67934 -0.27025,-0.54093 -0.63551,-1.30097 -0.81157,-1.68906 -0.176509,-0.38849 -0.462381,-1.04853 -0.635935,-1.46654 -0.173129,-0.41804 -0.463649,-1.1591 -0.645223,-1.64684 -0.181149,-0.48771 -0.473363,-1.32383 -0.649021,-1.85796 -0.17524,-0.53417 -0.406643,-1.27523 -0.513895,-1.64684 -0.107253,-0.37159 -0.287566,-1.03668 -0.400727,-1.47793 -0.113169,-0.44127 -0.291363,-1.19206 -0.395661,-1.66795 -0.104724,-0.47631 -0.257157,-1.23641 -0.339081,-1.68906 -0.0815,-0.45309 -0.195928,-1.13715 -0.254202,-1.52015 -0.05827,-0.38342 -0.153284,-1.10549 -0.211558,-1.60461 -0.05785,-0.49954 -0.134282,-1.25966 -0.169332,-1.68907 -0.03547,-0.42986 -0.08403,-1.15196 -0.108521,-1.6046 -0.02407,-0.4531 -0.04434,-1.58433 -0.04434,-2.51415 0,-0.929824 0.01943,-2.050954 0.04349,-2.491371 0.02407,-0.440424 0.06334,-1.057334 0.08783,-1.370691 0.02449,-0.313745 0.07221,-0.845822 0.105992,-1.182344 0.03421,-0.336969 0.109789,-0.978805 0.168063,-1.426437 0.05827,-0.447601 0.171443,-1.207709 0.251248,-1.689062 0.07981,-0.481382 0.220421,-1.245683 0.312902,-1.698327 0.09205,-0.453092 0.235625,-1.118168 0.319235,-1.477929 0.08361,-0.360194 0.209865,-0.873239 0.280807,-1.140117 0.07052,-0.26687 0.223801,-0.818329 0.339924,-1.22457 0.116123,-0.406643 0.354277,-1.176039 0.5291,-1.710175 0.17524,-0.534166 0.438313,-1.296795 0.584412,-1.69453 0.146525,-0.397772 0.409172,-1.075106 0.583995,-1.505346 0.174815,-0.430285 0.481382,-1.148547 0.681115,-1.595723 0.200151,-0.447176 0.561614,-1.213557 0.80314,-1.703416 0.24196,-0.489827 0.642269,-1.261328 0.889264,-1.713972 0.247025,-0.453092 0.640157,-1.14642 0.874074,-1.541269 0.233515,-0.394818 0.641844,-1.059005 0.907415,-1.475802 0.265602,-0.416775 0.673939,-1.034551 0.907415,-1.372363 0.233932,-0.337813 0.605108,-0.861391 0.824709,-1.163357 0.220004,-0.30192 0.605108,-0.814987 0.855543,-1.140117 0.250823,-0.325144 0.748679,-0.942502 1.106776,-1.372362 0.357658,-0.429868 0.923516,-1.085207 1.257076,-1.456816 0.333589,-0.371594 1.025664,-1.100852 1.537927,-1.620254 0.512209,-0.519386 1.273555,-1.260493 1.692024,-1.646835 0.418468,-0.386373 0.998247,-0.905365 1.287909,-1.15318 0.289677,-0.248293 0.773976,-0.653668 1.075942,-0.901567 0.30192,-0.247451 0.98602,-0.778229 1.520155,-1.180217 0.534166,-0.401577 1.262999,-0.93149 1.619799,-1.17809 0.356814,-0.246182 0.959818,-0.647334 1.340237,-0.89139 0.380464,-0.244071 0.972046,-0.612285 1.314946,-0.818329 0.342879,-0.206485 0.9463,-0.555279 1.341149,-0.775723 0.394818,-0.220847 1.088625,-0.592015 1.541269,-0.825544 0.452667,-0.233515 1.234291,-0.61524 1.736377,-0.848329 0.50207,-0.232671 1.271885,-0.573438 1.710631,-0.757541 0.43873,-0.183685 1.110953,-0.453092 1.493953,-0.598349 0.382994,-0.145256 0.991033,-0.367371 1.350794,-0.493625 0.360194,-0.126254 1.051411,-0.352592 1.537016,-0.503339 0.48518,-0.150329 1.150218,-0.347526 1.477929,-0.437888 0.327256,-0.09036 0.899441,-0.240266 1.27105,-0.333589 0.371593,-0.0929 0.980476,-0.235626 1.35292,-0.317125 0.372437,-0.08107 1.027791,-0.214087 1.456816,-0.29516 0.428599,-0.0815 1.22624,-0.214513 1.771844,-0.296429 0.545991,-0.0815 1.334389,-0.187065 1.752402,-0.233932 0.418042,-0.04687 1.092801,-0.113586 1.499042,-0.147793 0.406643,-0.03421 1.166698,-0.08277 1.689062,-0.108103 0.522766,-0.02534 1.263834,-0.05025 1.646835,-0.05489 0.383419,-0.0051 1.067509,-0.0038 1.520159,0.0021 z M 81.673103,82.19046 c -0.0114,-4.22e-4 -0.409598,0.573856 -0.884251,1.276062 -0.474624,0.702229 -1.81278,2.66407 -2.973174,4.359435 -1.160775,1.695366 -4.677046,6.816246 -7.81419,11.379903 -3.139118,4.56639 -5.781239,8.45062 -5.875793,8.63897 -0.09417,0.18749 -0.222115,0.49447 -0.284187,0.68238 -0.06207,0.18749 -0.141458,0.51854 -0.176926,0.73559 -0.03505,0.21704 -0.06377,0.58653 -0.06418,0.82175 0,0.23478 0.02913,0.59582 0.06461,0.8023 0.03589,0.20607 0.111057,0.52699 0.16722,0.71279 0.05658,0.1858 0.18664,0.50883 0.289677,0.71785 0.102612,0.20902 0.285029,0.51854 0.404949,0.68745 0.119921,0.16932 0.343721,0.44127 0.497848,0.60426 0.153702,0.16342 0.430711,0.41045 0.61524,0.54937 0.184528,0.13935 0.546833,0.35597 0.805266,0.48222 0.258425,0.12584 0.650714,0.27701 0.871112,0.3357 0.220421,0.0587 0.602154,0.12668 0.847873,0.15118 0.314588,0.0317 0.576818,0.0317 0.886757,0 0.24196,-0.0249 0.597506,-0.084 0.790457,-0.13217 0.192556,-0.0482 0.487291,-0.14399 0.654511,-0.21282 0.167221,-0.0693 0.427757,-0.1934 0.578504,-0.27617 0.151173,-0.0828 0.369482,-0.21873 0.485605,-0.30234 0.116123,-0.0836 0.360612,-0.29516 0.543037,-0.4704 0.182417,-0.17524 0.412552,-0.42311 0.510941,-0.55064 0.09839,-0.12794 2.160313,-3.12051 4.582036,-6.65068 2.421723,-3.53017 4.416471,-6.43324 4.432952,-6.45139 0.01647,-0.0181 1.480891,2.08178 3.254786,4.66603 1.773514,2.58425 4.133113,6.01683 5.24285,7.62736 1.110118,1.61091 2.402281,3.49675 2.871861,4.19144 0.667605,0.9864 0.864809,1.25077 0.903618,1.20938 0.02745,-0.0292 0.505033,-0.71785 1.061132,-1.53071 0.556122,-0.81286 1.294669,-1.8926 1.640911,-2.39977 0.346258,-0.50714 2.596477,-3.78391 5.000045,-7.28158 2.40395,-3.49804 4.39916,-6.39352 4.43379,-6.43491 l 0.0633,-0.0752 2.69824,3.93633 c 1.48386,2.16495 4.22942,6.16257 6.10128,8.88353 1.87195,2.7211 3.4161,4.93921 3.43175,4.92949 0.0156,-0.01 0.47589,-0.66802 1.02315,-1.46357 0.54726,-0.79509 1.89344,-2.7625 2.99133,-4.37129 1.09789,-1.60924 4.54482,-6.63503 7.66002,-11.16877 3.16023,-4.600184 5.73817,-8.392903 5.83235,-8.581251 0.0929,-0.185797 0.21789,-0.486031 0.27869,-0.666754 0.0604,-0.180731 0.1423,-0.494476 0.182,-0.696738 0.0477,-0.244489 0.0714,-0.566261 0.0701,-0.958983 -0.002,-0.392282 -0.0262,-0.704758 -0.0743,-0.928984 -0.0397,-0.185797 -0.11909,-0.477586 -0.1761,-0.649021 -0.057,-0.171017 -0.17946,-0.463224 -0.27236,-0.649446 -0.0933,-0.186222 -0.26476,-0.47716 -0.38172,-0.646491 -0.11697,-0.168906 -0.3906,-0.479697 -0.60806,-0.689979 -0.21747,-0.21029 -0.5536,-0.48518 -0.74657,-0.610599 -0.1934,-0.124993 -0.44633,-0.275315 -0.56246,-0.333164 -0.11612,-0.05827 -0.35343,-0.156664 -0.52783,-0.219578 -0.17397,-0.0625 -0.43578,-0.141459 -0.58104,-0.17524 -0.14568,-0.03378 -0.45435,-0.07939 -0.68576,-0.101344 -0.27109,-0.02576 -0.57807,-0.02534 -0.85972,0.0013 -0.2411,0.0228 -0.58483,0.07896 -0.76387,0.124994 -0.17904,0.04561 -0.48814,0.149479 -0.68702,0.23056 -0.1989,0.08107 -0.49153,0.224643 -0.65072,0.319235 -0.15877,0.09417 -0.43493,0.289252 -0.61355,0.432822 -0.17904,0.143996 -0.44591,0.404532 -0.5937,0.579347 -0.14738,0.174397 -2.27978,3.253115 -4.73826,6.841536 -2.45841,3.587965 -4.48612,6.521875 -4.50639,6.518913 -0.0198,-0.003 -1.39097,-1.969458 -3.04745,-4.370448 -1.65656,-2.400989 -3.10031,-4.508139 -3.20877,-4.682058 -0.10852,-0.174397 -1.09158,-1.608862 -2.18476,-3.188104 -1.09281,-1.579242 -2.38117,-3.454982 -2.86252,-4.168201 -0.48139,-0.713203 -0.89056,-1.306516 -0.90955,-1.318288 -0.019,-0.01183 -0.36526,0.467029 -0.76934,1.064094 -0.40411,0.596662 -1.15022,1.693315 -1.65823,2.436912 -0.50756,0.743612 -0.93703,1.36135 -0.95344,1.373198 -0.0169,0.0114 -2.01252,2.914087 -4.43507,6.450105 -2.422558,3.536017 -4.416016,6.4277 -4.42999,6.426485 -0.01435,-0.0013 -1.287454,-1.849082 -2.829634,-4.106531 -1.542104,-2.256994 -4.2784,-6.255453 -6.080623,-8.885043 -1.802223,-2.629438 -3.286076,-4.781321 -3.297923,-4.7817 z"
     id="icon" /></svg>